<svg width="50" height="50" viewBox="0 0 50 50" fill="none" xmlns="http://www.w3.org/2000/svg">
<path d="M25 37.9167C29.6023 37.9167 33.3333 34.1857 33.3333 29.5833C33.3333 24.981 29.6023 21.25 25 21.25C20.3976 21.25 16.6666 24.981 16.6666 29.5833C16.6666 34.1857 20.3976 37.9167 25 37.9167Z" stroke="white" stroke-width="1.5" stroke-miterlimit="10" stroke-linecap="round" stroke-linejoin="round"/>
<path d="M21.75 29.7917L23.1042 31.1458C23.5 31.5417 24.1458 31.5417 24.5417 31.1667L28.25 27.75" stroke="white" stroke-width="1.5" stroke-linecap="round" stroke-linejoin="round"/>
<path d="M16.6666 45.8333H33.3333C41.7083 45.8333 43.2083 42.4792 43.6458 38.3958L45.2083 21.7292C45.7708 16.6458 44.3125 12.5 35.4166 12.5H14.5833C5.68746 12.5 4.22913 16.6458 4.79163 21.7292L6.35413 38.3958C6.79163 42.4792 8.29163 45.8333 16.6666 45.8333Z" stroke="white" stroke-width="1.5" stroke-miterlimit="10" stroke-linecap="round" stroke-linejoin="round"/>
<path d="M16.6666 12.5V10.8333C16.6666 7.14579 16.6666 4.16663 23.3333 4.16663H26.6666C33.3333 4.16663 33.3333 7.14579 33.3333 10.8333V12.5" stroke="white" stroke-width="1.5" stroke-miterlimit="10" stroke-linecap="round" stroke-linejoin="round"/>
<path d="M45.1041 22.9166C41.5 25.5416 37.5 27.375 33.3541 28.4166" stroke="white" stroke-width="1.5" stroke-miterlimit="10" stroke-linecap="round" stroke-linejoin="round"/>
<path d="M5.45837 23.4791C8.93754 25.8541 12.7292 27.5416 16.6667 28.5" stroke="white" stroke-width="1.5" stroke-miterlimit="10" stroke-linecap="round" stroke-linejoin="round"/>
</svg>
