<svg width="30" height="30" viewBox="0 0 30 30" fill="none" xmlns="http://www.w3.org/2000/svg">
<path opacity="0.4" d="M15 27.5C21.9036 27.5 27.5 21.9036 27.5 15C27.5 8.09644 21.9036 2.5 15 2.5C8.09644 2.5 2.5 8.09644 2.5 15C2.5 21.9036 8.09644 27.5 15 27.5Z" fill="white"/>
<path d="M19.6373 19.9125C19.4748 19.9125 19.3123 19.875 19.1623 19.775L15.2873 17.4625C14.3248 16.8875 13.6123 15.625 13.6123 14.5125V9.38751C13.6123 8.87501 14.0373 8.45001 14.5498 8.45001C15.0623 8.45001 15.4873 8.87501 15.4873 9.38751V14.5125C15.4873 14.9625 15.8623 15.625 16.2498 15.85L20.1248 18.1625C20.5748 18.425 20.7123 19 20.4498 19.45C20.2623 19.75 19.9498 19.9125 19.6373 19.9125Z" fill="white"/>
</svg>
